<?xml version="1.0" encoding="UTF-8" standalone="no"?>
<!DOCTYPE svg PUBLIC "-//W3C//DTD SVG 1.1//EN" "http://www.w3.org/Graphics/SVG/1.1/DTD/svg11.dtd">
<svg width="100%"
     height="100%"
     viewBox="0 0 32 32"
     version="1.1"
     xmlns="http://www.w3.org/2000/svg"
     xml:space="preserve"
     style="fill-rule:evenodd;clip-rule:evenodd;stroke-linejoin:round;stroke-miterlimit:2;">
    <path d="M3,8l0,-2l12.774,0c1.724,-0 3.39,0.617 4.698,1.741c2.679,2.304 5.177,4.867 6.753,7.522c1.116,1.879 1.775,3.811 1.775,5.737l-0,2.922c-0,1.7 -1.378,3.078 -3.078,3.078l-22.922,0l0,-2l22.922,0c0.595,-0 1.078,-0.483 1.078,-1.078l-0,-2.922c-0,-1.587 -0.575,-3.168 -1.494,-4.716c-1.476,-2.485 -3.83,-4.869 -6.338,-7.026c-0.945,-0.812 -2.149,-1.258 -3.394,-1.258l-12.774,0Zm-0,4l0,-2l6,0l0,9l-6,0l-0,-2l4,-0l-0,-5l-4,0Zm13.236,-2l0.211,0.106c2.149,1.074 5.373,4.298 6.447,6.447l0.106,0.211l0,2.236l-12,0l0,-9l5.236,-0Zm4.621,7c-1.06,-1.753 -3.406,-4.065 -5.104,-5l-2.753,0l-0,5l7.857,0Zm2.143,4l-0,2l-20,0l-0,-2l20,0Z"/>
</svg>